<?xml version="1.0" encoding="UTF-8" standalone="no"?>
<svg
   class="bi bi-chat-square-quote-fill"
   width="1em"
   height="1em"
   viewBox="0 0 16 16"
   fill="currentColor"
   version="1.1"
   id="svg4"
   sodipodi:docname="logo.svg"
   inkscape:version="1.1 (c68e22c387, 2021-05-23)"
   xmlns:inkscape="http://www.inkscape.org/namespaces/inkscape"
   xmlns:sodipodi="http://sodipodi.sourceforge.net/DTD/sodipodi-0.dtd"
   xmlns="http://www.w3.org/2000/svg"
   xmlns:svg="http://www.w3.org/2000/svg">
  <defs
     id="defs8" />
  <sodipodi:namedview
     id="namedview6"
     pagecolor="#ffffff"
     bordercolor="#666666"
     borderopacity="1.0"
     inkscape:pageshadow="2"
     inkscape:pageopacity="0.0"
     inkscape:pagecheckerboard="0"
     showgrid="false"
     inkscape:zoom="50.75"
     inkscape:cx="7.9901478"
     inkscape:cy="7.5369458"
     inkscape:window-width="1920"
     inkscape:window-height="1001"
     inkscape:window-x="-9"
     inkscape:window-y="-9"
     inkscape:window-maximized="1"
     inkscape:current-layer="svg4" />
  <path
     fill-rule="evenodd"
     d="M0 2a2 2 0 0 1 2-2h12a2 2 0 0 1 2 2v8a2 2 0 0 1-2 2h-2.5a1 1 0 0 0-.8.4l-1.9 2.533a1 1 0 0 1-1.6 0L5.3 12.4a1 1 0 0 0-.8-.4H2a2 2 0 0 1-2-2V2zm7.194 2.766c.087.124.163.26.227.401.428.948.393 2.377-.942 3.706a.446.446 0 0 1-.612.01.405.405 0 0 1-.011-.59c.419-.416.672-.831.809-1.22-.269.165-.588.26-.93.26C4.775 7.333 4 6.587 4 5.667 4 4.747 4.776 4 5.734 4c.271 0 .528.06.756.166l.008.004c.169.07.327.182.469.324.085.083.161.174.227.272zM11 7.073c-.269.165-.588.26-.93.26-.958 0-1.735-.746-1.735-1.666 0-.92.777-1.667 1.734-1.667.271 0 .528.06.756.166l.008.004c.17.07.327.182.469.324.085.083.161.174.227.272.087.124.164.26.228.401.428.948.392 2.377-.942 3.706a.446.446 0 0 1-.613.01.405.405 0 0 1-.011-.59c.42-.416.672-.831.81-1.22z"
     id="path2" />
</svg>
